<svg width="211" height="57" viewBox="0 0 211 57" fill="none" xmlns="http://www.w3.org/2000/svg">
<g clip-path="url(#clip0_1403_1528)">
<path d="M94.1698 27.1978H22.9326V29.8024H94.1698V27.1978Z" fill="#FFFFFF"/>
<path d="M12.6441 0.5H0.792969V56.5H12.6441V0.5Z" fill="#FFFFFF"/>
<path d="M116.179 0.5H104.328V56.5H116.179V0.5Z" fill="#FFFFFF"/>
<path d="M210.207 3.62551H198.356V7.01155H209.946V9.74644H198.356V13.2627H210.207V16.1278H195.23V0.890625H210.207V3.62551ZM186.114 9.74644H177.128V13.2627H186.114V9.74644ZM186.114 3.62551H177.128V7.01155H186.114V3.62551ZM187.025 0.890625C188.458 0.890625 189.239 1.67202 189.239 3.10458V6.88132C189.239 7.66272 188.588 8.44411 187.677 8.44411C188.588 8.44411 189.239 9.09528 189.239 10.0069V13.9139C189.239 15.3464 188.458 16.1278 187.025 16.1278H174.002V0.890625H187.025ZM165.667 0.890625H169.184L162.151 10.3976V16.1278H159.025V10.3976L151.993 0.890625H155.77L160.718 7.53248L165.667 0.890625ZM143.528 6.88132V0.890625H146.653V16.1278H143.528V9.87667H134.672V16.1278H131.546V0.890625H134.672V6.88132H143.528Z" fill="#FFFFFF"/>
<path d="M131.416 24.8533H132.588V32.537H131.416V24.8533Z" fill="#FFFFFF"/>
<path d="M142.355 24.8534V32.5371H141.444V26.9371L139.1 31.2348H138.318L135.974 26.9371V32.4069H134.932V24.7231H135.844L138.579 30.0627L141.314 24.7231H142.355V24.8534Z" fill="#FFFFFF"/>
</g>
<defs>
<clipPath id="clip0_1403_1528">
<rect width="209.414" height="56" fill="#FFFFFF" transform="translate(0.792969 0.5)"/>
</clipPath>
</defs>
</svg>