<svg width="92" height="23" viewBox="0 0 92 23" xmlns="http://www.w3.org/2000/svg">
    <g fill-rule="nonzero" fill="none">
        <g fill="#D7282F">
            <path d="m39.542 10.991 7.76-8.707h-5.068l-6.371 7.423V2.284h-4.314v18.44h4.314v-8.075l4.923 6.217a4.937 4.937 0 0 0 3.872 1.857h2.945l-8.06-9.732zM82.13 17.864v-5.396c0-3.888-1.802-5.699-5.666-5.699-1.573 0-3.102.429-4.55 1.273l-.16.094.02.287c.032.483.3.927.718 1.19.417.26.919.306 1.376.13a6.143 6.143 0 0 1 2.203-.425c2.042 0 2.9.786 2.981 2.785-.81-.036-1.452-.036-2.3-.036-2.415 0-6.5.97-6.5 4.6 0 2.776 1.895 4.367 5.197 4.367 2.042 0 3.318-.943 3.984-1.65a2.03 2.03 0 0 0 1.922 1.34h.927l-.048-.342c-.068-.5-.104-1.324-.104-2.518zm-3.07-3.362v.857c0 1.928-1.304 3.126-3.402 3.126-.88 0-2.175-.578-2.175-1.823 0-1.92 2.704-2.207 4.317-2.207.257 0 .514.012.77.024.161.012.326.02.49.023zM91.703 6.946a7.214 7.214 0 0 0-1.629-.173c-1.264 0-2.56.73-3.362 1.842A2.373 2.373 0 0 0 84.48 7.08h-.542v13.647h3.07v-6.236c0-3.048 1.304-5.02 3.326-5.02.481 0 .899.071 1.24.209l.425.172V7.01l-.297-.063zM68.96 16.592l-.256.122s-.393.184-.534.243c-1.015.444-2.555.778-3.587.778-3.539 0-6.106-2.62-6.106-6.225 0-3.664 2.563-6.225 6.235-6.225.541 0 1.08.063 1.593.184.65.154 1.336.024 1.877-.36.546-.386.887-.979.943-1.635l.045-.538-.37-.16c-1.24-.535-2.616-.794-4.213-.794-5.85 0-9.934 3.888-9.934 9.453 0 5.832 3.888 9.603 9.91 9.603 1.742 0 3.174-.224 4.253-.664l.374-.153-.23-3.63z"/>
        </g>
        <path d="M22.41.003c-5.474.432-9.835 4.705-10.277 10.058-.04.49.378.899.88.899h9.436a.867.867 0 0 0 .88-.86V.863c0-.491-.422-.9-.92-.86z" fill="#D7282F"/>
        <path d="M12.13 12.94c.44 5.356 4.806 9.625 10.275 10.057a.86.86 0 0 0 .919-.86V12.9c0-.475-.39-.86-.879-.86h-9.437c-.497 0-.919.408-.879.9z" fill="#B2B2B2"/>
        <path d="M10.147.164H.883A.874.874 0 0 0 0 1.028v9.068c0 .475.393.864.883.864h9.264a.874.874 0 0 0 .883-.864V1.028a.876.876 0 0 0-.883-.864z" fill="#D7282F"/>
        <path d="M10.147 12.04H.883a.874.874 0 0 0-.883.864v9.068c0 .476.393.864.883.864h9.264a.874.874 0 0 0 .883-.864v-9.068a.874.874 0 0 0-.883-.864z" fill="#B2B2B2"/>
    </g>
</svg>
