<svg width="85" height="26" viewBox="0 0 85 26" fill="none" xmlns="http://www.w3.org/2000/svg">
    <g clip-path="url(#2klh210x5a)">
        <path d="M85 16.129H0v8.935h85v-8.935z" fill="url(#ihr77ryz3b)"/>
        <path d="M6.146 2.616c-.986-.922-1.94-1.168-2.72-1.168-1.139 0-1.838.592-1.838 1.299 0 .955.68 1.35 2.893 2.598.491.281 1.053.677 1.493 1.252.362.444.632 1.053.632 1.858 0 1.76-1.309 3.06-3.367 3.06a5.316 5.316 0 0 1-3.13-1.036v-2.04c.34.412 1.379 1.646 3.13 1.646.866 0 1.804-.527 1.804-1.481 0-.937-.989-1.628-1.531-1.941C1.675 5.592 1.148 5.282.638 4.657c-.358-.444-.58-.972-.58-1.68C.059 1.282 1.386 0 3.479 0c.95 0 1.87.28 2.668.79v1.826zM18.25 11.368h-1.606V6.483H10.46v4.885H8.87V.148h1.59v4.854h6.184V.149h1.606v11.22zM22.535.149h-1.588v11.22h1.588V.148zM35.518 11.368h-1.359l-7.387-8.637v8.637h-1.49V.148h1.28l7.45 8.703V.15h1.506v11.22zM43.707 2.616c-.985-.922-1.94-1.168-2.72-1.168-1.14 0-1.839.592-1.839 1.299 0 .955.682 1.35 2.894 2.598.492.281 1.052.677 1.494 1.252.358.444.63 1.053.63 1.858 0 1.76-1.309 3.06-3.368 3.06a5.314 5.314 0 0 1-3.129-1.036v-2.04c.342.412 1.378 1.646 3.129 1.646.867 0 1.803-.527 1.803-1.481 0-.937-.987-1.628-1.532-1.941-1.835-1.071-2.361-1.381-2.872-2.006-.355-.444-.578-.972-.578-1.68C37.619 1.282 38.945 0 41.037 0c.952 0 1.87.28 2.67.79v1.826zM52.696 1.58h-4.678v3.422h4.519v1.43h-4.52V9.92h4.826v1.45h-6.412V.148h6.265v1.43zM64.413 10.593c-.841.378-2.202.922-4.048.922-4.274 0-6.043-3.11-6.043-5.658C54.322 2.896 56.51 0 60.302 0c1.552 0 2.703.444 3.885.954v1.645c-1.814-1.07-3.302-1.168-3.92-1.168-2.204 0-4.293 1.678-4.293 4.328 0 2.483 1.766 4.342 4.44 4.342.807 0 1.36-.147 2.413-.494V7.27h-2.122V5.857h3.708v4.736zM72.933 6.613l-1.78-4.064-1.654 4.064h3.434zm3.742 4.755h-1.619L73.581 8.06h-4.696l-1.392 3.31h-1.62L70.618.08h1.118l4.94 11.287zM84.798 1.58h-4.683v3.422h4.52v1.43h-4.52V9.92h4.826v1.45h-6.41V.148h6.267v1.43zM46.456 20.603c.57 0 .915-.328.915-.84 0-.492-.345-.833-.915-.833H45.13v1.673h1.326zm.023-2.43c1.08 0 1.717.656 1.717 1.586 0 .94-.644 1.605-1.725 1.605H45.13v1.677h-.828v-4.869h2.177zM50.19 18.172h-.86v4.869h.86v-4.869zM56.368 23.041h-.703l-2.81-3.384v3.384h-.83v-4.869h.703l2.804 3.447v-3.447h.836v4.869zM41.432 20.603c.57 0 .915-.328.915-.84 0-.492-.346-.833-.915-.833h-1.327v1.673h1.327zm.023-2.43c1.079 0 1.717.656 1.717 1.586 0 .94-.644 1.605-1.726 1.605h-1.34v1.677h-.829v-4.869h2.178zM31.828 23.041h-.83v-2.062h-2.513v2.062h-.83v-4.869h.83v2.033H31v-2.033h.83v4.869zM35.515 22.336c-.917 0-1.66-.72-1.66-1.74 0-1.019.743-1.74 1.66-1.74.918 0 1.661.721 1.661 1.74 0 1.02-.743 1.74-1.66 1.74zm0-4.275c-1.379 0-2.496 1.075-2.496 2.536 0 1.46 1.117 2.535 2.496 2.535s2.497-1.075 2.497-2.535c0-1.46-1.118-2.536-2.497-2.536zM59.966 20.277v.762h1.682c-.126.745-.705 1.3-1.58 1.3-1.016 0-1.698-.791-1.698-1.742 0-.992.728-1.742 1.657-1.742.723 0 1.22.324 1.514.854l.737-.27c-.416-.924-1.271-1.378-2.252-1.378-1.437 0-2.5 1.134-2.5 2.535 0 1.411 1.09 2.536 2.522 2.536 1.431 0 2.421-1.101 2.421-2.503 0-.064-.005-.181-.016-.352h-2.488zM24.047 20.038c-.373-.113-.546-.328-.546-.61 0-.366.37-.655.97-.655.595 0 1.024.322 1.179.824l.731-.197c-.262-.907-1.026-1.34-1.952-1.34-1.115 0-1.743.678-1.743 1.385 0 .6.291.994.752 1.2.462.208 1.018.241 1.495.363.457.116.72.319.72.661 0 .428-.422.732-1.04.732-.6 0-1.125-.345-1.32-.94l-.762.211c.205.951 1.054 1.46 2.08 1.46 1.178 0 1.853-.7 1.853-1.489 0-.64-.37-1.075-.933-1.275-.538-.19-1.06-.2-1.484-.33z" fill="#fff"/>
    </g>
    <defs>
        <linearGradient id="ihr77ryz3b" x1="0" y1="12.532" x2="85" y2="12.532" gradientUnits="userSpaceOnUse">
            <stop stop-color="#FF329B"/>
            <stop offset=".122" stop-color="#FF3792"/>
            <stop offset=".322" stop-color="#FF4679"/>
            <stop offset=".574" stop-color="#FF5E51"/>
            <stop offset=".866" stop-color="#FF801B"/>
            <stop offset="1" stop-color="#FF9100"/>
        </linearGradient>
        <clipPath id="2klh210x5a">
            <path fill="#fff" d="M0 0h85v25.064H0z"/>
        </clipPath>
    </defs>
</svg>
