<?xml version="1.0" ?><svg style="enable-background:new 0 0 24 24;" version="1.1" viewBox="0 0 24 24" xml:space="preserve" xmlns="http://www.w3.org/2000/svg" xmlns:xlink="http://www.w3.org/1999/xlink"><style type="text/css">
	.st0{opacity:0.2;fill:none;stroke:#000000;stroke-width:5.000000e-02;stroke-miterlimit:10;}
</style><g id="Layer_1"/><g id="Layer_2"><g><path d="M11,8.1c0.5-0.1,0.9-0.7,0.7-1.2c-0.1-0.5-0.7-0.9-1.2-0.7C7.8,6.8,6,9.2,6,12c0,3.3,2.7,6,6,6c3.1,0,5.7-2.4,6-5.5    c0.1-0.5-0.4-1-0.9-1.1c-0.5-0.1-1,0.4-1.1,0.9c-0.2,2-2,3.7-4,3.7c-2.2,0-4-1.8-4-4C8,10.1,9.2,8.5,11,8.1z"/><path d="M21,11c-0.6,0-1,0.4-1,1c0,4.4-3.6,8-8,8s-8-3.6-8-8c0-4.2,3.3-7.7,7.5-8c0.6,0,1-0.5,0.9-1.1c0-0.6-0.5-1-1.1-0.9    C6.1,2.4,2,6.7,2,12c0,5.5,4.5,10,10,10s10-4.5,10-10C22,11.4,21.5,11,21,11z"/><path d="M13.9,8.7l-2.6,2.6c-0.4,0.4-0.4,1,0,1.4c0.2,0.2,0.5,0.3,0.7,0.3s0.5-0.1,0.7-0.3l2.6-2.6l1.7,0.5c0.1,0,0.2,0,0.3,0    c0.3,0,0.5-0.1,0.7-0.3l3.9-4c0.2-0.2,0.3-0.6,0.3-0.9s-0.3-0.6-0.6-0.7l-1.8-0.6l-0.6-1.8c-0.1-0.3-0.4-0.6-0.7-0.6    c-0.3-0.1-0.7,0-0.9,0.3l-3.9,4c-0.3,0.3-0.4,0.7-0.2,1L13.9,8.7z M17.8,4.6l0.3,0.7c0.1,0.3,0.3,0.5,0.6,0.6l0.7,0.3L17,8.6    l-1.2-0.4L15.4,7L17.8,4.6z"/></g></g></svg>