<svg xmlns="http://www.w3.org/2000/svg" xmlns:xlink="http://www.w3.org/1999/xlink" fill="none" version="1.1" width="36.3125" height="36" viewBox="0 0 36.3125 36"><defs><clipPath id="master_svg0_6_02387"><rect x="0.3125" y="3.953125" width="36" height="28.799999237060547" rx="0"/></clipPath></defs><g><rect x="0" y="0" width="36" height="36" rx="0" fill="#000000" fill-opacity="0" style="mix-blend-mode:passthrough"/><g clip-path="url(#master_svg0_6_02387)"><g transform="matrix(1,0,0,-1,0,66.7437744140625)"><g><path d="M8.4125,62.17188720703125Q10.9437,62.115587207031254,12.2937,59.92188720703125Q13.5313,57.67188720703125,12.2937,55.42188720703125Q10.9437,53.22808720703125,8.4125,53.17188720703125Q5.88125,53.22808720703125,4.53125,55.42188720703125Q3.29375,57.67188720703125,4.53125,59.92188720703125Q5.88125,62.115587207031254,8.4125,62.17188720703125ZM29.1125,62.17188720703125Q31.6437,62.115587207031254,32.9937,59.92188720703125Q34.2313,57.67188720703125,32.9937,55.42188720703125Q31.6437,53.22808720703125,29.1125,53.17188720703125Q26.5812,53.22808720703125,25.2312,55.42188720703125Q23.9937,57.67188720703125,25.2312,59.92188720703125Q26.5812,62.115587207031254,29.1125,62.17188720703125ZM0.3125,45.35308720703125Q0.36875,47.94058720703125,2.05625,49.628187207031246Q3.74375,51.315687207031246,6.33125,51.37188720703125L8.69375,51.37188720703125Q10.04375,51.37188720703125,11.225,50.80938720703125Q11.1125,50.190687207031246,11.1125,49.57188720703125Q11.225,46.25308720703125,13.5313,44.17188720703125L1.49375,44.17188720703125Q0.425,44.28438720703125,0.3125,45.35308720703125ZM23.0937,44.17188720703125Q25.4,46.25308720703125,25.5125,49.57188720703125Q25.5125,50.190687207031246,25.4,50.80938720703125Q26.5812,51.37188720703125,27.9312,51.37188720703125L30.2937,51.37188720703125Q32.8812,51.315687207031246,34.5687,49.628187207031246Q36.2562,47.94058720703125,36.3125,45.35308720703125Q36.2,44.28438720703125,35.1312,44.17188720703125L23.0937,44.17188720703125ZM12.9125,49.57188720703125Q12.9125,51.03438720703125,13.6437,52.27188720703125Q14.375,53.50938720703125,15.6125,54.240587207031254Q16.9063,54.97188720703125,18.3125,54.97188720703125Q19.7187,54.97188720703125,21.0125,54.240587207031254Q22.25,53.50938720703125,22.9812,52.27188720703125Q23.7125,51.03438720703125,23.7125,49.57188720703125Q23.7125,48.10938720703125,22.9812,46.87188720703125Q22.25,45.63438720703125,21.0125,44.90308720703125Q19.7187,44.17188720703125,18.3125,44.17188720703125Q16.9063,44.17188720703125,15.6125,44.90308720703125Q14.375,45.63438720703125,13.6437,46.87188720703125Q12.9125,48.10938720703125,12.9125,49.57188720703125ZM7.5125,34.89063720703125Q7.56875,38.04063720703125,9.70625,40.17813720703125Q11.8437,42.31563720703125,14.9937,42.37188720703125L21.6313,42.37188720703125Q24.7813,42.31563720703125,26.9187,40.17813720703125Q29.0562,38.04063720703125,29.1125,34.89063720703125Q29,33.48438720703125,27.5937,33.37188720703125L9.03125,33.37188720703125Q7.625,33.48438720703125,7.5125,34.89063720703125Z" fill="#000000" fill-opacity="1" style="mix-blend-mode:passthrough"/></g></g></g></g></svg>