<svg xmlns="http://www.w3.org/2000/svg" xmlns:xlink="http://www.w3.org/1999/xlink" fill="none" version="1.1" width="16" height="14" viewBox="0 0 16 14"><g transform="matrix(1,0,0,-1,0,28)"><g><path d="M15.6786,20.161459999999998Q16,20.526040000000002,16,21Q16,21.473959999999998,15.6786,21.838540000000002L9.96429,27.6719Q9.60714,28,9.14286,28Q8.67857,28,8.32143,27.6719Q8,27.307299999999998,8,26.8333Q8,26.3594,8.32143,25.994799999999998L12.1071,22.16667L1.14286,22.16667Q0.642857,22.16667,0.321429,21.838540000000002Q0,21.51042,0,21Q0,20.48958,0.321429,20.161459999999998Q0.642857,19.83333,1.14286,19.83333L12.1071,19.83333L8.32143,16.005209999999998Q8,15.64062,8,15.16667Q8,14.692708,8.32143,14.328125Q8.67857,14,9.14286,14Q9.60714,14,9.96429,14.328125L15.6786,20.161459999999998Z" fill="#FFFFFF" fill-opacity="1" style="mix-blend-mode:passthrough"/></g></g></svg>