<svg width="10" height="6" viewBox="0 0 10 6" fill="none" xmlns="http://www.w3.org/2000/svg">
<path fill-rule="evenodd" clip-rule="evenodd" d="M0.997272 0.670854C1.21597 0.443049 1.57054 0.443049 1.78923 0.670854L5.39325 4.42504L8.99727 0.670854C9.21596 0.443049 9.57054 0.443049 9.78923 0.670854C10.0079 0.89866 10.0079 1.26801 9.78923 1.49581L5.78923 5.66248C5.57054 5.89028 5.21597 5.89028 4.99727 5.66248L0.997272 1.49581C0.778579 1.26801 0.778579 0.89866 0.997272 0.670854Z" fill="#222222"/>
<path fill-rule="evenodd" clip-rule="evenodd" d="M0.997272 0.670854C1.21597 0.443049 1.57054 0.443049 1.78923 0.670854L5.39325 4.42504L8.99727 0.670854C9.21596 0.443049 9.57054 0.443049 9.78923 0.670854C10.0079 0.89866 10.0079 1.26801 9.78923 1.49581L5.78923 5.66248C5.57054 5.89028 5.21597 5.89028 4.99727 5.66248L0.997272 1.49581C0.778579 1.26801 0.778579 0.89866 0.997272 0.670854Z" fill="black" fill-opacity="0.2"/>
</svg>
