<svg xmlns="http://www.w3.org/2000/svg" xmlns:xlink="http://www.w3.org/1999/xlink" fill="none" version="1.1" width="36" height="36" viewBox="0 0 36 36"><defs><clipPath id="master_svg0_6_02392"><rect x="7.25" y="2.953125" width="20.625" height="30" rx="0"/></clipPath></defs><g><rect x="0" y="0" width="36" height="36" rx="0" fill="#000000" fill-opacity="0" style="mix-blend-mode:passthrough"/><g clip-path="url(#master_svg0_6_02392)"><g transform="matrix(1,0,0,-1,0,67.1953125)"><g><path d="M22.25,41.09765625Q23.2461,43.79295625,25.1211,46.07815625Q25.1211,46.13675625,25.1211,46.13675625Q25.5898,46.78125625,26.0586,47.42575625Q27.8164,49.94535625,27.875,53.28515625Q27.7578,57.67965625,24.8281,60.55075625Q21.957,63.48045625,17.5625,63.59765625Q13.16797,63.48045625,10.29688,60.55075625Q7.367188,57.67965625,7.25,53.28515625Q7.3085938,49.94535625,9.06641,47.42575625Q9.53516,46.78125625,10.00391,46.19535625Q10.00391,46.13675625,10.00391,46.13675625Q11.878910000000001,43.85155625,12.875,41.09765625L22.25,41.09765625ZM17.5625,33.59765625Q19.5547,33.65625005,20.9023,34.94531625Q22.1914,36.29296625,22.25,38.28515625L22.25,39.22265625L12.875,39.22265625L12.875,38.28515625Q12.933589999999999,36.29296625,14.222660000000001,34.94531625Q15.57031,33.65625005,17.5625,33.59765625ZM12.875,53.28515625Q12.816410000000001,52.40625625,11.9375,52.34765625Q11.05859,52.40625625,11,53.28515625Q11.05859,56.09765625,12.933589999999999,57.91405625Q14.75,59.78905625,17.5625,59.84765625Q18.4414,59.78905625,18.5,58.91015625Q18.4414,58.03125625,17.5625,57.97265625Q15.57031,57.91405625,14.222660000000001,56.62495625Q12.933589999999999,55.27735625,12.875,53.28515625Z" fill="#000000" fill-opacity="1" style="mix-blend-mode:passthrough"/></g></g></g></g></svg>